<svg width="4000" height="3000" xmlns="http://www.w3.org/2000/svg" viewBox="0 0 4000 3000">
  <rect width="100%" height="100%" fill="white"/> <!-- Optional: background color -->
  <path d="M 780.55,1405.71 L 780.50,1405.64 L 780.46,1405.59 L 780.41,1405.53 L 780.39,1405.50 L 780.36,1405.47 L 780.33,1405.45 L 780.40,1405.53 L 780.47,1405.62 L 780.55,1405.71 M 954.01,1356.89 L 954.31,1356.81 L 954.45,1356.78 L 956.49,1356.15 L 955.67,1356.40 L 954.84,1356.64 L 954.01,1356.89 M 3338.57,977.76 L 3294.37,934.62 L 3239.66,894.43 L 3174.79,857.17 L 3174.79,857.14 L 3174.43,856.96 L 3174.26,856.88 L 3173.97,856.72 L 3173.70,856.56 L 3173.41,856.40 L 3173.40,856.41 L 3173.38,856.42 L 3173.37,856.44 L 3047.74,798.79 L 2886.45,741.07 L 2696.31,687.39 L 2484.05,642.43 L 2258.26,611.53 L 2026.81,600.00 L 2017.91,600.01 L 2008.93,600.07 L 1999.92,600.18 L 1990.98,600.08 L 1982.03,600.02 L 1973.06,600.00 L 1741.62,611.53 L 1515.85,642.43 L 1303.60,687.39 L 1113.50,741.05 L 952.26,798.76 L 826.67,856.44 L 826.67,856.40 L 826.54,856.47 L 826.39,856.55 L 826.23,856.62 L 825.91,856.80 L 825.58,856.96 L 825.26,857.14 L 825.27,857.15 L 825.29,857.16 L 825.30,857.17 L 760.35,894.44 L 705.63,934.62 L 661.43,977.77 L 628.14,1024.19 L 607.23,1073.31 L 600.00,1124.13 L 609.14,1180.43 L 635.72,1233.60 L 677.80,1281.96 L 712.44,1322.98 L 746.65,1364.16 L 780.41,1405.53 L 780.53,1405.67 L 780.65,1405.80 L 780.76,1405.93 L 823.34,1442.62 L 876.33,1465.07 L 934.68,1472.67 L 956.14,1471.64 L 977.54,1468.58 L 998.64,1463.51 L 998.64,1463.59 L 998.21,1463.72 L 997.79,1463.86 L 997.36,1463.99 L 997.79,1463.86 L 998.21,1463.72 L 998.64,1463.59 L 998.91,1467.52 L 998.73,1463.59 L 999.19,1463.45 L 999.65,1463.32 L 1000.11,1463.18 L 1017.60,1458.21 L 1035.17,1453.49 L 1052.69,1448.69 L 1049.51,1456.42 L 897.63,1725.72 L 849.88,1829.56 L 820.88,1937.78 L 811.11,2048.63 L 811.11,2119.41 L 857.22,2261.04 L 978.31,2361.68 L 1148.67,2400.00 L 2851.34,2400.00 L 3021.74,2361.67 L 3142.81,2261.02 L 3188.89,2119.41 L 3188.89,2048.63 L 3179.13,1937.78 L 3150.13,1829.56 L 3102.38,1725.72 L 2950.50,1456.42 L 2947.31,1448.66 L 2964.83,1453.46 L 2982.36,1458.17 L 2999.81,1463.14 L 3021.46,1468.45 L 3043.36,1471.59 L 3065.27,1472.63 L 3123.69,1465.04 L 3176.65,1442.58 L 3219.20,1405.94 L 3219.26,1405.87 L 3219.31,1405.79 L 3219.37,1405.72 L 3253.27,1364.24 L 3287.62,1322.95 L 3322.38,1281.86 L 3364.39,1233.49 L 3390.91,1180.33 L 3400.00,1124.10 L 3392.79,1073.28 L 3371.88,1024.16 L 3338.57,977.76 M 3065.27,1359.68 L 3058.82,1359.38 L 3052.35,1358.46 L 3045.90,1356.89 L 2940.30,1326.93 L 2833.73,1300.16 L 2726.30,1276.56 L 2714.93,1273.12 L 2705.13,1267.94 L 2697.15,1261.34 L 2691.28,1253.75 L 2687.70,1245.56 L 2686.49,1236.85 L 2686.71,1213.42 L 2686.84,1189.98 L 2686.84,1138.69 L 2686.84,1138.87 L 2681.85,1105.06 L 2667.76,1073.90 L 2645.93,1046.48 L 2620.39,1025.58 L 2590.12,1008.92 L 2555.97,996.89 L 2554.72,996.41 L 2552.69,995.71 L 2547.72,994.17 L 2544.09,993.20 L 2540.44,992.29 L 2523.08,988.31 L 2498.60,983.15 L 2467.29,976.97 L 2340.53,955.33 L 2183.31,935.71 L 2019.02,927.03 L 2012.66,927.06 L 2006.33,927.12 L 2000.00,927.22 L 1993.67,927.12 L 1987.35,927.06 L 1981.03,927.03 L 1860.95,931.92 L 1741.38,944.01 L 1631.30,959.72 L 1582.74,967.83 L 1540.09,975.57 L 1504.54,982.51 L 1489.76,985.56 L 1477.12,988.27 L 1466.67,990.60 L 1462.23,991.64 L 1458.25,992.61 L 1454.55,993.58 L 1447.83,995.53 L 1445.64,996.28 L 1444.29,996.78 L 1410.01,1008.82 L 1379.64,1025.53 L 1354.02,1046.52 L 1332.23,1073.93 L 1318.17,1105.06 L 1313.15,1138.84 L 1313.15,1138.69 L 1313.12,1146.89 L 1313.16,1187.78 L 1313.30,1212.29 L 1313.55,1236.78 L 1312.31,1245.51 L 1308.72,1253.75 L 1302.85,1261.38 L 1294.84,1267.99 L 1285.04,1273.18 L 1273.70,1276.60 L 1166.36,1300.15 L 1059.92,1326.89 L 954.44,1356.78 L 954.32,1356.82 L 954.21,1356.86 L 954.09,1356.89 L 954.00,1356.89 L 947.54,1358.48 L 941.08,1359.42 L 934.68,1359.73 L 918.00,1357.56 L 903.88,1351.65 L 893.28,1342.63 L 858.39,1299.91 L 823.07,1257.41 L 787.30,1215.09 L 786.45,1214.07 L 784.74,1212.04 L 783.74,1211.15 L 782.73,1210.27 L 781.73,1209.39 L 755.07,1179.86 L 740.44,1151.63 L 735.87,1124.13 L 739.45,1099.27 L 750.90,1072.59 L 771.56,1043.91 L 802.52,1013.78 L 844.45,983.10 L 897.62,952.73 L 897.88,952.59 L 898.14,952.46 L 898.41,952.33 L 898.62,952.22 L 898.82,952.11 L 899.03,951.99 L 1010.36,900.87 L 1161.49,846.72 L 1342.44,795.63 L 1544.03,752.92 L 1757.26,723.72 L 1973.06,712.94 L 1981.65,712.96 L 1990.26,713.03 L 1998.85,713.13 L 2001.15,713.13 L 2009.64,713.02 L 2018.20,712.96 L 2026.81,712.94 L 2242.63,723.73 L 2455.89,752.93 L 2657.52,795.63 L 2838.51,846.75 L 2989.67,900.90 L 3101.01,951.99 L 3101.28,952.13 L 3101.54,952.26 L 3101.81,952.39 L 3102.38,952.69 L 3155.55,983.09 L 3197.49,1013.78 L 3228.48,1043.91 L 3249.13,1072.59 L 3260.58,1099.26 L 3264.13,1124.09 L 3259.56,1151.63 L 3244.96,1179.86 L 3218.31,1209.39 L 3217.30,1210.28 L 3216.30,1211.18 L 3215.30,1212.07 L 3214.44,1213.06 L 3213.59,1214.06 L 3212.74,1215.05 L 3176.94,1257.37 L 3141.58,1299.91 L 3106.68,1342.63 L 3106.74,1342.56 L 3106.79,1342.48 L 3106.85,1342.41 L 3096.21,1351.56 L 3082.02,1357.53 L 3065.27,1359.68 M 946.98,2048.63 L 955.29,1954.23 L 979.98,1862.08 L 1020.67,1773.66 L 1175.65,1498.83 L 1213.46,1407.32 L 1275.09,1392.97 L 1306.03,1386.29 L 1345.30,1374.38 L 1379.81,1356.09 L 1408.52,1332.32 L 1430.05,1304.46 L 1443.96,1272.91 L 1449.21,1238.75 L 1449.39,1238.75 L 1449.40,1238.26 L 1449.42,1237.77 L 1449.43,1237.28 L 1449.43,1235.81 L 1449.18,1211.64 L 1449.03,1187.46 L 1449.00,1147.11 L 1449.03,1139.05 L 1449.03,1138.90 L 1450.02,1132.28 L 1453.13,1125.46 L 1458.63,1118.61 L 1466.51,1112.23 L 1476.70,1106.88 L 1489.06,1103.06 L 1539.87,1092.10 L 1539.87,1091.63 L 1586.39,1082.71 L 1644.20,1072.68 L 1710.38,1062.54 L 1800.39,1051.16 L 1892.69,1043.04 L 1981.02,1039.97 L 1986.87,1039.99 L 1992.67,1040.04 L 1998.40,1040.11 L 1998.95,1040.12 L 1999.49,1040.14 L 2000.04,1040.15 L 2001.45,1040.15 L 2007.24,1040.05 L 2013.10,1039.99 L 2019.01,1039.97 L 2126.85,1044.41 L 2238.51,1055.71 L 2342.99,1070.59 L 2387.75,1078.08 L 2427.12,1085.20 L 2460.02,1091.58 L 2460.02,1092.03 L 2510.85,1103.02 L 2523.23,1106.86 L 2533.48,1112.23 L 2541.41,1118.64 L 2546.87,1125.48 L 2549.98,1132.28 L 2550.96,1138.87 L 2550.96,1139.05 L 2550.96,1189.67 L 2550.83,1212.76 L 2550.60,1235.85 L 2550.60,1236.84 L 2555.52,1271.73 L 2569.55,1303.93 L 2591.48,1332.32 L 2620.19,1356.09 L 2654.69,1374.36 L 2693.96,1386.26 L 2724.88,1392.94 L 2755.70,1400.08 L 2786.48,1407.32 L 2824.35,1498.79 L 2979.33,1773.65 L 3020.02,1862.07 L 3044.71,1954.22 L 3053.02,2048.62 L 3053.02,2119.40 L 3045.82,2164.01 L 3025.53,2203.98 L 2993.97,2237.93 L 2953.11,2264.18 L 2905.02,2281.06 L 2851.34,2287.04 L 1148.67,2287.04 L 1095.01,2281.06 L 1046.94,2264.18 L 1006.08,2237.93 L 974.49,2203.96 L 954.19,2164.00 L 946.99,2119.40 L 946.99,2048.63 L 946.98,2048.63 M 998.73,1463.58 L 998.73,1463.47 L 999.13,1463.38 L 999.53,1463.30 L 999.93,1463.21 L 999.53,1463.34 L 998.73,1463.58 M 1574.82,1903.30 L 1787.44,1903.30 L 1787.44,2080.03 L 1574.82,2080.03 L 1574.82,1903.30 M 1574.82,1661.45 L 1787.44,1661.45 L 1787.44,1838.18 L 1574.82,1838.18 L 1574.82,1661.45 M 1574.82,1419.61 L 1787.44,1419.61 L 1787.44,1596.30 L 1574.82,1596.30 L 1574.82,1419.61 M 1893.72,1903.30 L 2106.33,1903.30 L 2106.33,2080.03 L 1893.72,2080.03 L 1893.72,1903.30 M 1893.72,1661.45 L 2106.33,1661.45 L 2106.33,1838.18 L 1893.72,1838.18 L 1893.72,1661.45 M 1893.72,1419.61 L 2106.33,1419.61 L 2106.33,1596.30 L 1893.72,1596.30 L 1893.72,1419.61 M 2212.66,1903.30 L 2425.23,1903.30 L 2425.23,2080.03 L 2212.66,2080.03 L 2212.66,1903.30 M 2212.66,1661.45 L 2425.23,1661.45 L 2425.23,1838.18 L 2212.66,1838.18 L 2212.66,1661.45 M 2212.66,1419.61 L 2425.23,1419.61 L 2425.23,1596.30 L 2212.66,1596.30 L 2212.66,1419.61" fill="none" stroke="black" stroke-width="2" stroke-linecap="round" stroke-linejoin="round"/>
  <!-- You could add markers for start/end or Z=0 points if needed -->
  <!-- Example: Mark start point -->
  <!-- <circle cx="780.55" cy="1405.71" r="5" fill="green" /> -->
  <!-- Example: Mark end point -->
  <!-- <circle cx="2212.66" cy="1419.61" r="5" fill="red" /> -->
</svg>